<mxfile host="app.diagrams.net" modified="2023-04-03T00:47:12.687Z" agent="Mozilla/5.0 (Macintosh; Intel Mac OS X 10_15_7) AppleWebKit/605.1.15 (KHTML, like Gecko) Version/16.3 Safari/605.1.15" etag="L9KSp3xijYkoX578c11X" version="21.1.2" type="github">
  <diagram id="SfNCtjg4LhTN6FmxpOlK" name="network-filter-code-oop.drawio.svg">
    <mxGraphModel dx="2205" dy="761" grid="1" gridSize="10" guides="1" tooltips="1" connect="1" arrows="1" fold="1" page="1" pageScale="1" pageWidth="850" pageHeight="1100" math="0" shadow="0">
      <root>
        <mxCell id="0" />
        <mxCell id="1" parent="0" />
        <UserObject label="TCP Proxy/Connection limiting&lt;br&gt;/RateLimit... Filter" link="https://www.envoyproxy.io/docs/envoy/latest/configuration/listeners/network_filters/network_filters#config-network-filters" id="2">
          <mxCell style="rounded=1;whiteSpace=wrap;html=1;labelPosition=center;verticalLabelPosition=middle;align=center;verticalAlign=middle;spacingTop=0;spacingBottom=0;fontStyle=1;fillColor=#f8cecc;strokeColor=#b85450;" parent="1" vertex="1">
            <mxGeometry x="440" y="1290" width="240" height="80" as="geometry" />
          </mxCell>
        </UserObject>
        <mxCell id="3" value="network(L3/L4) filters&lt;br&gt;E::Network::Filter" style="rounded=1;whiteSpace=wrap;html=1;labelPosition=center;verticalLabelPosition=middle;align=center;verticalAlign=middle;spacingTop=0;spacingBottom=0;fontStyle=1;fillColor=#f8cecc;strokeColor=#b85450;" parent="1" vertex="1">
          <mxGeometry x="790" y="1050" width="180" height="80" as="geometry" />
        </mxCell>
        <mxCell id="4" value="Extends" style="endArrow=block;endSize=16;endFill=0;html=1;rounded=0;edgeStyle=orthogonalEdgeStyle;" parent="1" source="3" target="28" edge="1">
          <mxGeometry width="160" relative="1" as="geometry">
            <mxPoint x="1030" y="1040" as="sourcePoint" />
            <mxPoint x="1020.0588235294122" y="950" as="targetPoint" />
          </mxGeometry>
        </mxCell>
        <mxCell id="5" value="http filter" style="rounded=1;whiteSpace=wrap;html=1;labelPosition=center;verticalLabelPosition=top;align=center;verticalAlign=bottom;spacingTop=0;spacingBottom=-30;fontStyle=1;fillColor=#f8cecc;strokeColor=#b85450;" parent="1" vertex="1">
          <mxGeometry x="970" y="1640" width="180" height="80" as="geometry" />
        </mxCell>
        <UserObject label="Redis//Mysql/.. Filter" link="https://www.envoyproxy.io/docs/envoy/latest/configuration/listeners/network_filters/network_filters#config-network-filters" id="6">
          <mxCell style="rounded=1;whiteSpace=wrap;html=1;labelPosition=center;verticalLabelPosition=top;align=center;verticalAlign=bottom;spacingTop=0;spacingBottom=-30;fontStyle=1;fillColor=#f8cecc;strokeColor=#b85450;" parent="1" vertex="1">
            <mxGeometry x="710" y="1290" width="220" height="80" as="geometry" />
          </mxCell>
        </UserObject>
        <UserObject label="HTTP connection manager filter&lt;br&gt;&lt;span style=&quot;font-weight: normal&quot;&gt;(HCM)&lt;br&gt;&lt;/span&gt;&lt;div&gt;E::Http:;ConnectionManagerImpl&lt;/div&gt;&lt;span style=&quot;font-weight: 400&quot;&gt;usually as the last&lt;/span&gt;&lt;span style=&quot;font-weight: normal&quot;&gt;&amp;nbsp;Network Filter&lt;/span&gt;" link="https://www.envoyproxy.io/docs/envoy/latest/intro/arch_overview/http/http_connection_management" id="7">
          <mxCell style="rounded=1;whiteSpace=wrap;html=1;labelPosition=center;verticalLabelPosition=middle;align=center;verticalAlign=middle;spacingTop=0;spacingBottom=0;fontStyle=1;fillColor=#f8cecc;strokeColor=#b85450;" parent="1" vertex="1">
            <mxGeometry x="950" y="1290" width="220" height="80" as="geometry" />
          </mxCell>
        </UserObject>
        <UserObject label="Extends" link="https://www.envoyproxy.io/docs/envoy/latest/intro/arch_overview/http/http_connection_management" id="8">
          <mxCell style="endArrow=block;endSize=16;endFill=0;html=1;rounded=0;edgeStyle=orthogonalEdgeStyle;" parent="1" source="7" target="3" edge="1">
            <mxGeometry width="160" relative="1" as="geometry">
              <mxPoint x="780" y="1300" as="sourcePoint" />
              <mxPoint x="890" y="1140" as="targetPoint" />
              <Array as="points">
                <mxPoint x="1020" y="1210" />
                <mxPoint x="880" y="1210" />
              </Array>
            </mxGeometry>
          </mxCell>
        </UserObject>
        <UserObject label="&lt;div&gt;Envoy has a built in network level filter called the HTTP connection manager. This filter translates raw bytes into HTTP level messages and events (e.g., headers received, body data received, trailers received, etc.). It also handles functionality common to all HTTP connections and requests such as access logging, request ID generation and tracing, request/response header manipulation, route table management, and statistics.&lt;/div&gt;&lt;div&gt;&lt;br&gt;&lt;/div&gt;&lt;div&gt;&lt;br&gt;&lt;/div&gt;&lt;div&gt;The last network filter for a listener dealing with HTTP is HTTP connection manager (HCM)&lt;br&gt;&lt;/div&gt;" link="https://www.envoyproxy.io/docs/envoy/latest/intro/arch_overview/http/http_connection_management" id="9">
          <mxCell style="shape=note;strokeWidth=2;fontSize=14;size=20;whiteSpace=wrap;html=1;fillColor=#fff2cc;strokeColor=#d6b656;fontColor=#666600;align=left;" parent="1" vertex="1">
            <mxGeometry x="490" y="1480" width="395" height="210" as="geometry" />
          </mxCell>
        </UserObject>
        <mxCell id="10" value="" style="endArrow=none;dashed=1;html=1;dashPattern=1 3;strokeWidth=2;rounded=0;" parent="1" source="7" target="9" edge="1">
          <mxGeometry width="50" height="50" relative="1" as="geometry">
            <mxPoint x="860" y="1530" as="sourcePoint" />
            <mxPoint x="910" y="1480" as="targetPoint" />
          </mxGeometry>
        </mxCell>
        <UserObject label="&lt;div&gt;instance is created for each new connection&lt;br&gt;&lt;/div&gt;" link="https://www.envoyproxy.io/docs/envoy/latest/intro/life_of_a_request#network-filter-chain-processing" id="11">
          <mxCell style="shape=note;strokeWidth=2;fontSize=14;size=20;whiteSpace=wrap;html=1;fillColor=#fff2cc;strokeColor=#d6b656;fontColor=#666600;align=left;" parent="1" vertex="1">
            <mxGeometry x="1020" y="1020" width="300" height="80" as="geometry" />
          </mxCell>
        </UserObject>
        <mxCell id="12" value="" style="endArrow=none;dashed=1;html=1;dashPattern=1 3;strokeWidth=2;rounded=0;" parent="1" source="11" target="3" edge="1">
          <mxGeometry width="50" height="50" relative="1" as="geometry">
            <mxPoint x="1130" y="1329.633507853403" as="sourcePoint" />
            <mxPoint x="1300" y="1313.6125654450261" as="targetPoint" />
          </mxGeometry>
        </mxCell>
        <UserObject label="HTTP filter chain" link="https://www.envoyproxy.io/docs/envoy/latest/intro/arch_overview/http/http_connection_management" id="13">
          <mxCell style="rounded=1;whiteSpace=wrap;html=1;labelPosition=center;verticalLabelPosition=middle;align=center;verticalAlign=middle;spacingTop=0;spacingBottom=0;fontStyle=1;fillColor=#f8cecc;strokeColor=#b85450;" parent="1" vertex="1">
            <mxGeometry x="950" y="1470" width="220" height="80" as="geometry" />
          </mxCell>
        </UserObject>
        <mxCell id="14" value="" style="endArrow=diamondThin;endFill=1;endSize=24;html=1;rounded=0;edgeStyle=orthogonalEdgeStyle;" parent="1" source="13" target="7" edge="1">
          <mxGeometry width="160" relative="1" as="geometry">
            <mxPoint x="510" y="1470" as="sourcePoint" />
            <mxPoint x="670" y="1470" as="targetPoint" />
          </mxGeometry>
        </mxCell>
        <UserObject label="MetadataExchangeFilter&lt;br&gt;&lt;span style=&quot;font-weight: normal&quot;&gt;(implement by Istioï¼Œ&lt;br&gt;usually as the first Network Filter)&lt;/span&gt;" link="https://www.envoyproxy.io/docs/envoy/latest/configuration/listeners/network_filters/network_filters#config-network-filters" id="15">
          <mxCell style="rounded=1;whiteSpace=wrap;html=1;labelPosition=center;verticalLabelPosition=middle;align=center;verticalAlign=middle;spacingTop=0;spacingBottom=0;fontStyle=1;fillColor=#f8cecc;strokeColor=#b85450;" parent="1" vertex="1">
            <mxGeometry x="185" y="1290" width="240" height="80" as="geometry" />
          </mxCell>
        </UserObject>
        <mxCell id="16" value="Extends" style="endArrow=block;endSize=16;endFill=0;html=1;rounded=0;edgeStyle=orthogonalEdgeStyle;jumpStyle=arc;" parent="1" source="15" target="3" edge="1">
          <mxGeometry x="-0.3334" width="160" relative="1" as="geometry">
            <mxPoint x="230" y="1200" as="sourcePoint" />
            <mxPoint x="390" y="1200" as="targetPoint" />
            <Array as="points">
              <mxPoint x="320" y="1210" />
              <mxPoint x="880" y="1210" />
            </Array>
            <mxPoint as="offset" />
          </mxGeometry>
        </mxCell>
        <mxCell id="17" value="Extends" style="endArrow=block;endSize=16;endFill=0;html=1;rounded=0;edgeStyle=orthogonalEdgeStyle;exitX=0.506;exitY=0.004;exitDx=0;exitDy=0;exitPerimeter=0;" parent="1" source="2" target="3" edge="1">
          <mxGeometry width="160" relative="1" as="geometry">
            <mxPoint x="890" y="1060" as="sourcePoint" />
            <mxPoint x="1030" y="960" as="targetPoint" />
          </mxGeometry>
        </mxCell>
        <mxCell id="18" value="Extends" style="endArrow=block;endSize=16;endFill=0;html=1;rounded=0;edgeStyle=orthogonalEdgeStyle;" parent="1" source="6" target="3" edge="1">
          <mxGeometry width="160" relative="1" as="geometry">
            <mxPoint x="690" y="1330.0588235294122" as="sourcePoint" />
            <mxPoint x="890" y="1140" as="targetPoint" />
          </mxGeometry>
        </mxCell>
        <mxCell id="19" value="" style="endArrow=block;dashed=1;endFill=0;endSize=12;html=1;rounded=0;" parent="1" source="40" target="42" edge="1">
          <mxGeometry width="160" relative="1" as="geometry">
            <mxPoint x="-520" y="960" as="sourcePoint" />
            <mxPoint x="-360" y="960" as="targetPoint" />
          </mxGeometry>
        </mxCell>
        <mxCell id="20" value="" style="endArrow=block;dashed=1;endFill=0;endSize=12;html=1;rounded=0;" parent="1" source="41" target="42" edge="1">
          <mxGeometry width="160" relative="1" as="geometry">
            <mxPoint x="-329.4949999999999" y="1040" as="sourcePoint" />
            <mxPoint x="-206.0383333333334" y="930" as="targetPoint" />
          </mxGeometry>
        </mxCell>
        <mxCell id="21" value="" style="endArrow=block;dashed=1;endFill=0;endSize=12;html=1;rounded=0;" parent="1" source="45" target="42" edge="1">
          <mxGeometry width="160" relative="1" as="geometry">
            <mxPoint x="-319.4949999999999" y="1050" as="sourcePoint" />
            <mxPoint x="-196.0383333333334" y="940" as="targetPoint" />
          </mxGeometry>
        </mxCell>
        <mxCell id="22" value="" style="group" parent="1" vertex="1" connectable="0">
          <mxGeometry x="209.99999999999994" y="461" width="310" height="90" as="geometry" />
        </mxCell>
        <mxCell id="23" value="Listener" style="rounded=1;whiteSpace=wrap;html=1;labelPosition=center;verticalLabelPosition=top;align=center;verticalAlign=bottom;spacingTop=0;spacingBottom=-30;fontStyle=1;fillColor=#dae8fc;strokeColor=#6c8ebf;spacingLeft=0;" parent="22" vertex="1">
          <mxGeometry width="310" height="90" as="geometry" />
        </mxCell>
        <mxCell id="24" value="&lt;div&gt;ActiveTcpSocket:&lt;/div&gt;&lt;div&gt;ListenerFilterManager/&lt;/div&gt;&lt;div&gt;ListenerFilterCallbacks&lt;/div&gt;" style="rounded=1;whiteSpace=wrap;html=1;labelPosition=center;verticalLabelPosition=middle;align=center;verticalAlign=middle;spacingTop=0;spacingBottom=0;fontStyle=1;fillColor=#dae8fc;strokeColor=#6c8ebf;spacingLeft=0;" parent="1" vertex="1">
          <mxGeometry x="209.99999999999994" y="620" width="310" height="90" as="geometry" />
        </mxCell>
        <mxCell id="25" value="" style="endArrow=diamondThin;endFill=1;endSize=24;html=1;rounded=0;edgeStyle=orthogonalEdgeStyle;jumpStyle=arc;" parent="1" source="24" target="23" edge="1">
          <mxGeometry width="160" relative="1" as="geometry">
            <mxPoint x="-120" y="640" as="sourcePoint" />
            <mxPoint x="40" y="640" as="targetPoint" />
          </mxGeometry>
        </mxCell>
        <mxCell id="26" value="listenerFilterChain&lt;br&gt;1:N&lt;br&gt;accept_filters_" style="endArrow=diamondThin;endFill=1;endSize=24;html=1;rounded=0;edgeStyle=orthogonalEdgeStyle;jumpStyle=arc;" parent="1" source="42" target="24" edge="1">
          <mxGeometry width="160" relative="1" as="geometry">
            <mxPoint x="375" y="630" as="sourcePoint" />
            <mxPoint x="375" y="560" as="targetPoint" />
            <Array as="points">
              <mxPoint x="-140" y="660" />
            </Array>
          </mxGeometry>
        </mxCell>
        <mxCell id="27" value="1:1&lt;br&gt;best match filterChain" style="endArrow=diamondThin;endFill=0;endSize=24;html=1;rounded=0;edgeStyle=orthogonalEdgeStyle;jumpStyle=arc;" parent="1" source="37" target="24" edge="1">
          <mxGeometry width="160" relative="1" as="geometry">
            <mxPoint x="240" y="820" as="sourcePoint" />
            <mxPoint x="400" y="820" as="targetPoint" />
            <Array as="points">
              <mxPoint x="365" y="1100" />
            </Array>
          </mxGeometry>
        </mxCell>
        <UserObject label="ReadFilter" link="https://www.envoyproxy.io/docs/envoy/latest/intro/life_of_a_request#network-filter-chain-processing" id="28">
          <mxCell style="swimlane;fontStyle=1;align=center;verticalAlign=top;childLayout=stackLayout;horizontal=1;startSize=26;horizontalStack=0;resizeParent=1;resizeParentMax=0;resizeLast=0;collapsible=1;marginBottom=0;fillColor=#dae8fc;strokeColor=#6c8ebf;" parent="1" vertex="1">
            <mxGeometry x="735" y="720" width="170" height="60" as="geometry" />
          </mxCell>
        </UserObject>
        <mxCell id="29" value="" style="line;strokeWidth=1;fillColor=none;align=left;verticalAlign=middle;spacingTop=-1;spacingLeft=3;spacingRight=3;rotatable=0;labelPosition=right;points=[];portConstraint=eastwest;" parent="28" vertex="1">
          <mxGeometry y="26" width="170" height="8" as="geometry" />
        </mxCell>
        <mxCell id="30" value="onData()" style="text;fillColor=none;align=left;verticalAlign=top;spacingLeft=4;spacingRight=4;overflow=hidden;rotatable=0;points=[[0,0.5],[1,0.5]];portConstraint=eastwest;strokeColor=#000000;" parent="28" vertex="1">
          <mxGeometry y="34" width="170" height="26" as="geometry" />
        </mxCell>
        <UserObject label="WriteFilter" link="https://www.envoyproxy.io/docs/envoy/latest/intro/life_of_a_request#network-filter-chain-processing" id="31">
          <mxCell style="swimlane;fontStyle=1;align=center;verticalAlign=top;childLayout=stackLayout;horizontal=1;startSize=26;horizontalStack=0;resizeParent=1;resizeParentMax=0;resizeLast=0;collapsible=1;marginBottom=0;fillColor=#dae8fc;strokeColor=#6c8ebf;" parent="1" vertex="1">
            <mxGeometry x="930" y="720" width="175" height="60" as="geometry" />
          </mxCell>
        </UserObject>
        <mxCell id="32" value="" style="line;strokeWidth=1;fillColor=none;align=left;verticalAlign=middle;spacingTop=-1;spacingLeft=3;spacingRight=3;rotatable=0;labelPosition=right;points=[];portConstraint=eastwest;" parent="31" vertex="1">
          <mxGeometry y="26" width="175" height="8" as="geometry" />
        </mxCell>
        <mxCell id="33" value="onWrite()" style="text;fillColor=none;align=left;verticalAlign=top;spacingLeft=4;spacingRight=4;overflow=hidden;rotatable=0;points=[[0,0.5],[1,0.5]];portConstraint=eastwest;strokeColor=#000000;" parent="31" vertex="1">
          <mxGeometry y="34" width="175" height="26" as="geometry" />
        </mxCell>
        <mxCell id="34" value="1:N" style="endArrow=diamondThin;endFill=1;endSize=24;html=1;rounded=0;edgeStyle=orthogonalEdgeStyle;" parent="1" source="5" target="13" edge="1">
          <mxGeometry width="160" relative="1" as="geometry">
            <mxPoint x="1030" y="1500" as="sourcePoint" />
            <mxPoint x="1060" y="1380" as="targetPoint" />
          </mxGeometry>
        </mxCell>
        <mxCell id="35" value="FilterChainManagerImpl" style="rounded=1;whiteSpace=wrap;html=1;labelPosition=center;verticalLabelPosition=middle;align=center;verticalAlign=middle;spacingTop=0;spacingBottom=0;fontStyle=1;fillColor=#dae8fc;strokeColor=#6c8ebf;spacingLeft=0;" parent="1" vertex="1">
          <mxGeometry x="410" y="820" width="310" height="90" as="geometry" />
        </mxCell>
        <mxCell id="36" value="1:N" style="endArrow=diamondThin;endFill=1;endSize=24;html=1;rounded=0;edgeStyle=orthogonalEdgeStyle;jumpStyle=arc;" parent="1" source="3" target="37" edge="1">
          <mxGeometry width="160" relative="1" as="geometry">
            <mxPoint x="575" y="830" as="sourcePoint" />
            <mxPoint x="375" y="720" as="targetPoint" />
          </mxGeometry>
        </mxCell>
        <mxCell id="37" value="FilterChain&lt;br&gt;selector: xyz" style="rounded=1;whiteSpace=wrap;html=1;labelPosition=center;verticalLabelPosition=middle;align=center;verticalAlign=middle;spacingTop=0;spacingBottom=0;fontStyle=1;fillColor=#dae8fc;strokeColor=#6c8ebf;spacingLeft=0;" parent="1" vertex="1">
          <mxGeometry x="455" y="1045" width="220" height="90" as="geometry" />
        </mxCell>
        <mxCell id="38" value="filterChains&lt;br&gt;1:N" style="endArrow=diamondThin;endFill=1;endSize=24;html=1;rounded=0;edgeStyle=orthogonalEdgeStyle;jumpStyle=arc;" parent="1" source="37" target="35" edge="1">
          <mxGeometry width="160" relative="1" as="geometry">
            <mxPoint x="800" y="1100" as="sourcePoint" />
            <mxPoint x="520" y="1025.058823529412" as="targetPoint" />
          </mxGeometry>
        </mxCell>
        <mxCell id="39" value="" style="endArrow=diamondThin;endFill=0;endSize=24;html=1;rounded=0;edgeStyle=orthogonalEdgeStyle;jumpStyle=arc;" parent="1" source="35" target="23" edge="1">
          <mxGeometry width="160" relative="1" as="geometry">
            <mxPoint x="375" y="630" as="sourcePoint" />
            <mxPoint x="375" y="560" as="targetPoint" />
            <Array as="points">
              <mxPoint x="600" y="520" />
            </Array>
          </mxGeometry>
        </mxCell>
        <mxCell id="40" value="HttpInspector::Filter" style="rounded=1;whiteSpace=wrap;html=1;labelPosition=center;verticalLabelPosition=top;align=center;verticalAlign=bottom;spacingTop=0;spacingBottom=-30;fontStyle=1;fillColor=#e1d5e7;strokeColor=#9673a6;spacingLeft=0;" parent="1" vertex="1">
          <mxGeometry x="-490" y="1050" width="200" height="90" as="geometry" />
        </mxCell>
        <mxCell id="41" value="TlsInspector::Filter" style="rounded=1;whiteSpace=wrap;html=1;labelPosition=center;verticalLabelPosition=top;align=center;verticalAlign=bottom;spacingTop=0;spacingBottom=-30;fontStyle=1;fillColor=#e1d5e7;strokeColor=#9673a6;spacingLeft=0;" parent="1" vertex="1">
          <mxGeometry x="-254.31" y="1050" width="200" height="90" as="geometry" />
        </mxCell>
        <mxCell id="42" value="listener filter" style="rounded=1;whiteSpace=wrap;html=1;labelPosition=center;verticalLabelPosition=top;align=center;verticalAlign=bottom;spacingTop=0;spacingBottom=-30;fontStyle=1;fillColor=#e1d5e7;strokeColor=#9673a6;spacingLeft=0;" parent="1" vertex="1">
          <mxGeometry x="-309.31" y="870" width="310" height="90" as="geometry" />
        </mxCell>
        <mxCell id="43" value="manipulate connection metadata." style="text;html=1;strokeColor=none;fillColor=none;align=center;verticalAlign=middle;whiteSpace=wrap;rounded=0;fontStyle=2" parent="1" vertex="1">
          <mxGeometry x="-229.31" y="933.5318181818182" width="225.69" height="15.880909090909093" as="geometry" />
        </mxCell>
        <mxCell id="44" value="Extends" style="endArrow=block;endSize=16;endFill=0;html=1;rounded=0;edgeStyle=orthogonalEdgeStyle;" parent="1" source="3" target="31" edge="1">
          <mxGeometry width="160" relative="1" as="geometry">
            <mxPoint x="890" y="1060" as="sourcePoint" />
            <mxPoint x="925" y="755.9999999999998" as="targetPoint" />
            <Array as="points">
              <mxPoint x="880" y="930" />
              <mxPoint x="1018" y="930" />
            </Array>
          </mxGeometry>
        </mxCell>
        <mxCell id="45" value="ProxyProtocol::Filter" style="rounded=1;whiteSpace=wrap;html=1;labelPosition=center;verticalLabelPosition=top;align=center;verticalAlign=bottom;spacingTop=0;spacingBottom=-30;fontStyle=1;fillColor=#e1d5e7;strokeColor=#9673a6;spacingLeft=0;" parent="1" vertex="1">
          <mxGeometry x="-5" y="1050" width="200" height="90" as="geometry" />
        </mxCell>
        <mxCell id="46" value="findFilterChain()" style="endArrow=classic;html=1;rounded=0;edgeStyle=orthogonalEdgeStyle;jumpStyle=arc;dashed=1;" parent="1" source="24" target="35" edge="1">
          <mxGeometry width="50" height="50" relative="1" as="geometry">
            <mxPoint x="110" y="850" as="sourcePoint" />
            <mxPoint x="160" y="800" as="targetPoint" />
            <Array as="points">
              <mxPoint x="450" y="765" />
              <mxPoint x="565" y="765" />
            </Array>
          </mxGeometry>
        </mxCell>
        <object label="&lt;font style=&quot;font-size: 12px;&quot;&gt;%page%&lt;/font&gt;" placeholders="1" a="b" id="48">
          <mxCell style="text;html=1;strokeColor=none;fillColor=#FFCCFF;align=center;verticalAlign=middle;whiteSpace=wrap;rounded=1;glass=0;sketch=1;shadow=0;fontStyle=2;fontSize=12;" parent="1" vertex="1">
            <mxGeometry x="210" y="1800" width="290" height="40" as="geometry" />
          </mxCell>
        </object>
        <UserObject label="" link="https://istio.io/latest/docs/tasks/traffic-management/request-timeouts/" id="49">
          <mxCell style="shape=image;verticalLabelPosition=middle;labelBackgroundColor=#ffffff;verticalAlign=middle;aspect=fixed;imageAspect=0;image=data:image/png,iVBORw0KGgoAAAANSUhEUgAAAIAAAACACAMAAAD04JH5AAABwlBMVEUAAABGa7FGbLBHbLCAgL9VgNVGbLBHbLBGbLFJbbZHa7FVgL9Kb7FHa7BJbbJGa7BGbLFHa7FIbbFHbLBKbLFHbLBJbLJHbbRGbLBIbrNIcLdHbbGAgP9Kb7BGa7BOdrFHbLFHbbBGbLBHbLBIbLBQcL9HbLFHbLBHbLJJbLJGbLFGbLBGcrlRdLlGbLFHbbBHbLBIbbFHbLBGa7FHa7BHbLBGbLJKc7VIa7FHa7BJbbZGa7D////8/P2Qps9JbbH09vplg71KbrHh5/Jff7ro7fV4k8W6x+H8/f5IbLCjtdfY4O7U3e2EnMrCzuScsNTH0ufU3OxlhL3G0eaPpc9kg73p7fVPcrTv8vj+/v7p7vaKoc1yjsNae7i9yuO0w9/P2eqSqNBhgbu4xuCYrdNSdLVRdLRLb7JZerhUdraFnsv9/f5tisHm6/Svv9y5x+GCm8pgf7v4+fxHbLChtNequ9tph793ksWXrNPBzeSXrNJnhb58lsfAzeT7/P2TqdGsvNvQ2etsicDn6/Svv91zj8OdsNXV3e1ui8GOpc68yuLCzuWMo86itNezwt51kcRVd7aJoMxTdrXk6fOuvtx2kcSZyeQIAAAAO3RSTlMA/uzCBAa5xtocqQw+3zjpxNR8+TSvST2VQyBLAjfzDbuIzO2LEImohEL70h0Whl7Zdayrxbh0H1+FFS7NVf8AAATGSURBVHhexZtnUypJGIXfIQ3gRRQEEUVFwYRi9uqeBuONOYfNOeecc87x/26Vt9gte2Hu9Jlh5/kD89SZL6e731coqqXFreT6Wi0VymZDqdraenJrsVSV/4WefCWcRlvS4Uq+R7pJdHbGnoMjc/bMbFS6Q29hEq6YLPSK7xQzSzBgKVMUPxnIWTDEyg2IXwzGQBEbFD8YCoMmPCReSazCE6sJ8UJkYxQeGd2ICM2xfvhA/zHhiJQt+IJVpkKY74Nv9CXEmOEQfCQ0LGaMTFnwFWtqRAyITsN3pqPimrFxdIHxMXHJwgS6wsR94orjcXSJ+HFxwUIcXSO+4OL/T6CLTIzJPYiOo6uMR8WRkWl0mekRcWIKJnwOgilxYNiCCY99BXOsYenIfAhmApdBEJqXDkT6YChw53EQ9HWqKGWYCqhHwFDu0H8sc4HXnwOB1bYjRfphLqB+AkN/u5+wDEbg9jNgWG7Tv0cpAXUdDKMJ0VkBJ7APihXRGAIpoD4EhX5mCtMCn4EirJ0/QQuot0Fx9OQa8yDwMChiR87/8CDw8UOgGJB/yXkRUG+BIif/ULQ8CezcAoNVlBYZeBJQT4IiIy3iHgVOnAHDUkugFx4F1POgaN3mFTwLnANFQQ6JTnoWUA+CYfJuR5+Fd4HLoJg9FJjxQYArh5g5FLB9ECDLoS0i0jPngwBZDud6RCQPPwTUm2DIi0gFFNu/Ap+oFmw5rLBVBGh+cDQBdZ2tJWkugBOaAFcO0yJVMgClCZDlsColMoD/CjwKgpJskgFoAmw5XJQ6F4AmQJfDuiS5ANoJNIhymJQYFYAuQJfDmNhUALoAXQ5tqTEBdBBQ78KUmqSoAHQBuhymJEQFoAvQ5TAkWSoAXYAuh1nJUgHoAnQ5zEqICMBB4JrxL0hRAegCdDlMSY0KQBegy2FN1qgAdAG6HK7JOhWALkCXw3VJUgHoAnQ5TEqdCMBRQH0HA7ZkkQpAF6DL4aKUqAB0AboclqRKBaAL0OWwKpJmAtAF2HKYFpEwE4CzwPdGB5MKE4AuwJbDiojkmQB0AbYc5k2O503lWmDnlsHxXGwiAF2ALIe2yRVNUzkIkOVwxuCSavumkwBZDmcNrumaykjgnME1nRSIADQBrhwWDK5qm8pQ4JrBVa0sEQFoAkw5XJIWGSKAxg3gx4aDwc8G1/VFyySAxv7Fsxd2twHgjWdffPX9Tz/65v4GUQ6tovsnm6b2aZ2WyfmWiZtymHP/aLV3s7H/w9kLV/VPO5rcsxwOuH+2e/rqHjTcmDwFJ2LEw6WvDBJPt34SNnm83vvlJMG3Z0wer2UVDrx26rQy44svT+7BgVUXAwy0wgvnv941H2CQDcAPhZ2LD7g4nm5QQywHpxrKmZdefmfb3RALOcZz8Eqjc/BXLu2SYzwtygCrsPOeFrwjZWKUS1MggtdGudhhNl3h9JVLN+hhNn6c7+CJxt3gf/udGOcjBxp1hT/+/GsbBFOBj3QGPdQa9Fhv0IPNQY92BzzcvhD0eH/QCw5Br3gEvOQS8JrPfNCLTkGvetFElr0vuy1HxAuJFXhiJRHwwmPAK59BL736STEThwHxTDHYxeeAV78DX37vPtXSZj0Zs1vr/3YsWd8k1///BkPMv5iXuheUAAAAAElFTkSuQmCC;fontSize=11;labelPosition=right;align=left;fontStyle=4" parent="1" vertex="1">
            <mxGeometry x="195" y="1300" width="30" height="30" as="geometry" />
          </mxCell>
        </UserObject>
      </root>
    </mxGraphModel>
  </diagram>
</mxfile>
